<?xml version="1.0" standalone="no"?>
<!DOCTYPE svg PUBLIC "-//W3C//DTD SVG 20010904//EN"
 "http://www.w3.org/TR/2001/REC-SVG-20010904/DTD/svg10.dtd">
<svg version="1.0" xmlns="http://www.w3.org/2000/svg"
 width="928.000000pt" height="1120.000000pt" viewBox="0 0 928.000000 1120.000000"
 preserveAspectRatio="xMidYMid meet">
<metadata>
Created by potrace 1.16, written by Peter Selinger 2001-2019
</metadata>
<g transform="translate(0.000000,1120.000000) scale(0.100000,-0.100000)"
fill="#000000" stroke="none">
<path d="M4620 9043 c-8 -3 -60 -24 -115 -45 -55 -22 -145 -57 -200 -78 -55
-20 -237 -90 -405 -154 -168 -65 -399 -153 -515 -197 -115 -44 -257 -98 -315
-121 -255 -98 -324 -124 -645 -247 -753 -286 -760 -289 -758 -307 5 -60 27
-242 43 -369 11 -82 47 -377 80 -655 77 -642 112 -926 230 -1885 86 -701 117
-956 130 -1070 7 -55 13 -100 13 -101 1 0 70 -50 152 -111 224 -164 496 -364
615 -450 58 -42 155 -112 215 -156 61 -45 157 -115 215 -157 245 -179 492
-359 595 -435 433 -319 661 -484 679 -491 12 -5 140 86 761 541 127 92 302
221 390 285 361 263 767 558 875 636 103 75 451 331 457 337 1 2 27 207 57
457 31 250 62 505 70 565 8 61 20 151 25 200 6 50 33 272 60 495 27 223 68
558 91 745 22 187 52 430 65 540 13 110 34 279 45 375 11 96 27 225 35 285 25
191 48 389 49 414 1 20 -8 27 -59 46 -111 41 -570 216 -615 235 -25 10 -211
81 -415 159 -203 77 -500 190 -660 251 -159 61 -348 133 -420 160 -71 26 -206
78 -300 115 -93 37 -192 75 -220 85 -27 10 -102 39 -165 64 -63 25 -117 46
-120 45 -3 0 -12 -3 -20 -6z m398 -1692 c248 -51 487 -171 683 -344 109 -95
112 -78 -47 -239 -77 -77 -160 -157 -186 -180 l-48 -40 -73 61 c-238 197 -532
269 -838 206 -302 -63 -578 -292 -697 -577 -64 -152 -77 -225 -77 -418 1 -150
4 -187 23 -258 26 -95 82 -222 135 -305 48 -75 177 -209 252 -262 196 -139
442 -203 685 -176 246 26 444 126 561 281 65 86 91 166 93 284 l1 91 -422 3
-423 2 0 255 0 255 705 0 706 0 -2 -237 c-3 -407 -18 -536 -78 -703 -98 -268
-306 -497 -576 -633 -236 -118 -525 -172 -802 -148 -214 18 -368 58 -553 143
-298 137 -589 425 -730 720 -106 224 -139 367 -147 638 -5 169 -3 211 16 319
37 218 114 410 239 596 255 380 628 614 1087 681 129 19 382 11 513 -15z"/>
</g>
</svg>
