<?xml version="1.0" standalone="no"?>
<!DOCTYPE svg PUBLIC "-//W3C//DTD SVG 20010904//EN"
 "http://www.w3.org/TR/2001/REC-SVG-20010904/DTD/svg10.dtd">
<svg version="1.0" xmlns="http://www.w3.org/2000/svg"
 width="512" height="512" viewBox="50 100 830 920"
 preserveAspectRatio="xMidYMid meet">
<defs>
  <linearGradient id="shieldGradient" x1="0%" y1="0%" x2="100%" y2="0%">
    <stop offset="0%" style="stop-color:#5A8C5D;stop-opacity:1" />
    <stop offset="50%" style="stop-color:#4A7C5D;stop-opacity:1" />
    <stop offset="100%" style="stop-color:#3D6B4A;stop-opacity:1" />
  </linearGradient>
</defs>
<metadata>
Created by potrace 1.16, written by Peter Selinger 2001-2019
</metadata>
<g transform="translate(0.000000,1120.000000) scale(0.100000,-0.100000)"
fill="url(#shieldGradient)" stroke="none">
<path d="M4535 9029 c-55 -22 -143 -56 -195 -75 -52 -19 -120 -46 -150 -58
-30 -13 -111 -45 -180 -71 -69 -26 -165 -63 -215 -82 -113 -44 -476 -183 -715
-273 -41 -15 -131 -49 -200 -75 -69 -26 -152 -58 -185 -70 -119 -45 -480 -184
-690 -265 -99 -39 -213 -82 -303 -115 -65 -24 -65 -4 -2 -495 16 -129 39 -309
50 -400 49 -409 62 -513 95 -785 31 -248 59 -480 105 -860 5 -44 28 -226 50
-405 22 -179 49 -404 60 -500 11 -96 25 -204 30 -240 9 -59 50 -422 50 -441 0
-5 51 -45 113 -91 63 -46 227 -166 366 -268 139 -102 299 -219 356 -260 187
-136 868 -632 986 -719 121 -89 331 -243 472 -345 45 -33 108 -79 140 -103 31
-24 62 -43 67 -43 5 0 63 39 129 88 65 48 149 109 187 136 38 28 134 98 214
156 233 171 762 557 925 675 83 60 182 132 220 160 39 28 180 132 315 230 392
286 510 376 510 388 0 14 34 299 50 419 12 95 122 988 175 1428 19 162 56 462
80 665 25 204 54 447 65 540 12 94 29 238 40 320 11 83 24 193 30 245 6 52 21
178 34 280 20 152 22 187 11 198 -12 13 -287 120 -950 372 -143 54 -343 131
-445 170 -102 39 -216 83 -255 97 -66 24 -650 247 -780 298 -33 12 -121 46
-195 75 -74 29 -185 72 -247 96 -62 24 -114 44 -115 43 -2 0 -48 -19 -103 -40z
m490 -1698 c252 -55 503 -183 672 -344 40 -38 73 -72 73 -76 0 -3 -79 -82
-175 -174 -175 -168 -175 -168 -254 -104 -237 194 -499 258 -818 201 -282 -50
-557 -257 -697 -524 -299 -573 0 -1298 609 -1475 420 -121 885 40 1030 358 46
99 61 278 26 297 -13 6 -164 10 -424 10 -404 0 -404 0 -409 238 -3 130 -5 237
-4 237 0 0 311 -1 690 -3 689 -3 689 -3 683 -320 -3 -174 -10 -344 -16 -377
-39 -205 -106 -362 -214 -506 -181 -239 -456 -399 -802 -466 -125 -24 -433
-24 -564 1 -590 109 -1072 555 -1210 1121 -34 139 -45 235 -44 400 0 192 18
309 75 479 191 576 657 960 1268 1046 106 15 401 4 505 -19z"/>
</g>
</svg>
